<?xml version="1.0" encoding="UTF-8"?>
<svg width="31px" height="44px" viewBox="0 0 31 44" version="1.1" xmlns="http://www.w3.org/2000/svg" xmlns:xlink="http://www.w3.org/1999/xlink">
    <!-- Generator: Sketch 49.3 (51167) - http://www.bohemiancoding.com/sketch -->
    <title>icon_voicefill</title>
    <desc>Created with Sketch.</desc>
    <defs></defs>
    <g id="Test-Pilot-Mobile-Experiments" stroke="none" stroke-width="1" fill="none" fill-rule="evenodd">
        <g id="Mobile-Home" transform="translate(-257.000000, -1227.000000)" fill="#FFFFFF" fill-rule="nonzero">
            <g id="Group-23" transform="translate(58.000000, 1188.000000)">
                <g id="part3">
                    <g id="Group-5">
                        <g id="Project-01">
                            <g id="icon_voicefill" transform="translate(199.356651, 39.000000)">
                                <g id="icon-mic">
                                    <g id="Group-3" transform="translate(0.000000, 15.573607)">
                                        <path d="M30.0153846,1.91452991 C30.0153846,1.09401709 29.4615385,0.547008547 28.6307692,0.547008547 C27.8,0.547008547 27.2461538,1.09401709 27.2461538,1.91452991 C27.2461538,10.1196581 22.5384615,15.3162393 15.0615385,15.3162393 C7.58461538,15.3162393 2.87692308,10.1196581 2.87692308,1.91452991 C2.87692308,1.09401709 2.32307692,0.547008547 1.49230769,0.547008547 C0.661538462,0.547008547 0.107692308,1.09401709 0.107692308,1.91452991 C0.107692308,11.2136752 5.64615385,17.5042735 13.6769231,18.3247863 C13.6769231,18.3247863 13.6769231,18.5982906 13.6769231,18.5982906 L13.6769231,26.8034188 C13.6769231,27.6239316 14.2307692,28.1709402 15.0615385,28.1709402 C15.8923077,28.1709402 16.4461538,27.6239316 16.4461538,26.8034188 L16.4461538,18.5982906 C16.4461538,18.5982906 16.4461538,18.5982906 16.4461538,18.3247863 C24.7538462,17.5042735 30.0153846,11.2136752 30.0153846,1.91452991" id="Fill-1"></path>
                                    </g>
                                    <g id="Group-6" transform="translate(5.538462, 0.394120)">
                                        <path d="M9.52307692,3.14529915 C5.92307692,3.14529915 3.43076923,5.88034188 3.43076923,9.16239316 L3.43076923,18.4615385 C3.43076923,21.7435897 6.2,24.4786325 9.52307692,24.4786325 C12.8461538,24.4786325 15.6153846,21.7435897 15.6153846,18.4615385 L15.6153846,9.16239316 C15.6153846,5.88034188 12.8461538,3.14529915 9.52307692,3.14529915 M9.52307692,27.4871795 C4.26153846,27.4871795 0.107692308,23.3846154 0.107692308,18.4615385 L0.107692308,9.16239316 C0.107692308,4.23931624 4.26153846,0.136752137 9.24615385,0.136752137 C14.2307692,0.136752137 18.3846154,4.23931624 18.3846154,9.16239316 L18.3846154,18.4615385 C18.6615385,23.3846154 14.5076923,27.4871795 9.52307692,27.4871795" id="Fill-4"></path>
                                    </g>
                                </g>
                            </g>
                        </g>
                    </g>
                </g>
            </g>
        </g>
    </g>
</svg>